#N canvas 0 353 314 301 10;
#X obj 79 110 float;
#X obj 122 111 float;
#X obj 168 112 float;
#X obj 214 111 float;
#X obj 93 152 mtof;
#X obj 119 173 osc~;
#X obj 177 231 dac~;
#X obj 89 82 select 0 1 2 3 4 5 6 7;
#X obj 10 19 inlet;
#X obj 151 27 inlet;
#X obj 190 26 inlet;
#X obj 231 26 inlet;
#X obj 272 27 inlet;
#X obj 60 19 inlet;
#X obj 161 201 *~;
#X connect 0 0 4 0;
#X connect 1 0 4 0;
#X connect 2 0 4 0;
#X connect 3 0 4 0;
#X connect 4 0 5 0;
#X connect 5 0 14 0;
#X connect 7 0 0 0;
#X connect 7 1 1 0;
#X connect 7 2 2 0;
#X connect 7 3 3 0;
#X connect 7 4 0 0;
#X connect 7 5 1 0;
#X connect 7 6 2 0;
#X connect 7 7 3 0;
#X connect 8 0 7 0;
#X connect 9 0 0 1;
#X connect 10 0 1 1;
#X connect 11 0 2 1;
#X connect 12 0 3 1;
#X connect 13 0 14 1;
#X connect 14 0 6 0;
