#N canvas 0 22 1105 547 10;
#X obj 1037 381 bng 15 250 50 0 empty empty empty 17 7 0 10 -262144
-1 -1;
#X msg 1106 380 digital 2 1;
#X msg 1105 407 digital 3 1;
#X msg 1105 429 digital 4 1;
#X msg 1102 505 digital 7 1;
#X msg 1103 528 digital 8 1;
#X msg 1104 455 digital 5 1;
#X msg 1104 482 digital 6 0;
#X obj 313 -30 inlet;
#X obj 704 575 outlet;
#X obj 402 -20 route 0 1 2 3 4 5 6 7 8 9;
#X text 1055 351 write 9 to LEDs;
#X obj 434 174 bng 15 250 50 0 empty empty empty 17 7 0 10 -262144
-1 -1;
#X msg 498 197 digital 3 1;
#X msg 495 295 digital 7 1;
#X text 448 141 write 4 to LEDs;
#X obj 580 169 bng 15 250 50 0 empty empty empty 17 7 0 10 -262144
-1 -1;
#X msg 645 165 digital 2 1;
#X msg 644 214 digital 4 1;
#X msg 643 240 digital 5 1;
#X msg 641 290 digital 7 1;
#X msg 642 313 digital 8 1;
#X obj 734 166 bng 15 250 50 0 empty empty empty 17 7 0 10 -262144
-1 -1;
#X msg 797 237 digital 5 1;
#X msg 795 287 digital 7 1;
#X msg 796 310 digital 8 1;
#X obj 888 164 bng 15 250 50 0 empty empty empty 17 7 0 10 -262144
-1 -1;
#X msg 953 160 digital 2 1;
#X msg 952 187 digital 3 1;
#X msg 952 209 digital 4 1;
#X obj 1040 161 bng 15 250 50 0 empty empty empty 17 7 0 10 -262144
-1 -1;
#X msg 1105 157 digital 2 1;
#X msg 1104 184 digital 3 1;
#X msg 1104 206 digital 4 1;
#X msg 1103 232 digital 5 1;
#X msg 1103 259 digital 6 1;
#X msg 1101 282 digital 7 1;
#X msg 1102 305 digital 8 1;
#X msg 497 245 digital 5 0;
#X msg 498 219 digital 4 1;
#X msg 499 170 digital 2 0;
#X msg 497 272 digital 6 0;
#X msg 496 318 digital 8 1;
#X text 1054 128 write 8 to LEDs;
#X text 902 131 write 7 to LEDs;
#X text 748 133 write 6 to LEDs;
#X text 594 136 write 5 to LEDs;
#X msg 950 308 digital 8 0;
#X msg 949 285 digital 7 0;
#X msg 951 262 digital 6 0;
#X msg 951 236 digital 5 0;
#X msg 798 189 digital 3 0;
#X msg 798 211 digital 4 1;
#X msg 797 264 digital 6 1;
#X msg 644 192 digital 3 0;
#X msg 643 267 digital 6 0;
#X obj 141 182 bng 15 250 50 0 empty empty empty 17 7 0 10 -262144
-1 -1;
#X msg 205 205 digital 3 1;
#X obj 287 177 bng 15 250 50 0 empty empty empty 17 7 0 10 -262144
-1 -1;
#X msg 352 173 digital 2 1;
#X msg 351 222 digital 4 1;
#X msg 350 248 digital 5 1;
#X msg 347 322 digital 8 1;
#X msg 201 329 digital 8 1;
#X msg 350 275 digital 6 0;
#X text 301 144 write 3 to LEDs;
#X text 155 149 write 2 to LEDs;
#X obj -5 186 bng 15 250 50 0 empty empty empty 17 7 0 10 -262144 -1
-1;
#X msg 59 209 digital 3 1;
#X msg 58 257 digital 5 0;
#X msg 59 231 digital 4 1;
#X msg 60 182 digital 2 0;
#X msg 58 284 digital 6 0;
#X obj 8 407 bng 15 250 50 0 empty empty empty 17 7 0 10 -262144 -1
-1;
#X msg 72 430 digital 3 1;
#X msg 69 528 digital 7 1;
#X msg 72 452 digital 4 1;
#X text 9 153 write 1 to LEDs;
#X text 22 374 write 0 to LEDs;
#X msg 351 200 digital 3 1;
#X msg 348 298 digital 7 0;
#X msg 206 178 digital 2 1;
#X msg 56 307 digital 7 0;
#X msg 71 505 digital 6 1;
#X msg 71 478 digital 5 1;
#X msg 73 403 digital 2 1;
#X msg 68 554 digital 8 0;
#X msg 55 333 digital 8 0;
#X msg 204 253 digital 5 1;
#X msg 205 227 digital 4 0;
#X msg 204 280 digital 6 0;
#X msg 202 303 digital 7 0;
#X msg 799 162 digital 2 1;
#X connect 0 0 4 0;
#X connect 0 0 1 0;
#X connect 0 0 2 0;
#X connect 0 0 3 0;
#X connect 0 0 6 0;
#X connect 0 0 7 0;
#X connect 0 0 5 0;
#X connect 1 0 9 0;
#X connect 2 0 9 0;
#X connect 3 0 9 0;
#X connect 4 0 9 0;
#X connect 5 0 9 0;
#X connect 6 0 9 0;
#X connect 7 0 9 0;
#X connect 8 0 10 0;
#X connect 10 0 73 0;
#X connect 10 1 67 0;
#X connect 10 2 56 0;
#X connect 10 3 58 0;
#X connect 10 4 12 0;
#X connect 10 5 16 0;
#X connect 10 6 22 0;
#X connect 10 7 26 0;
#X connect 10 8 30 0;
#X connect 10 9 0 0;
#X connect 12 0 14 0;
#X connect 12 0 40 0;
#X connect 12 0 13 0;
#X connect 12 0 39 0;
#X connect 12 0 38 0;
#X connect 12 0 41 0;
#X connect 12 0 42 0;
#X connect 13 0 9 0;
#X connect 14 0 9 0;
#X connect 16 0 20 0;
#X connect 16 0 17 0;
#X connect 16 0 54 0;
#X connect 16 0 18 0;
#X connect 16 0 19 0;
#X connect 16 0 55 0;
#X connect 16 0 21 0;
#X connect 17 0 9 0;
#X connect 18 0 9 0;
#X connect 19 0 9 0;
#X connect 20 0 9 0;
#X connect 21 0 9 0;
#X connect 22 0 24 0;
#X connect 22 0 92 0;
#X connect 22 0 51 0;
#X connect 22 0 52 0;
#X connect 22 0 23 0;
#X connect 22 0 53 0;
#X connect 22 0 25 0;
#X connect 23 0 9 0;
#X connect 24 0 9 0;
#X connect 25 0 9 0;
#X connect 26 0 48 0;
#X connect 26 0 27 0;
#X connect 26 0 28 0;
#X connect 26 0 29 0;
#X connect 26 0 50 0;
#X connect 26 0 49 0;
#X connect 26 0 47 0;
#X connect 27 0 9 0;
#X connect 28 0 9 0;
#X connect 29 0 9 0;
#X connect 30 0 36 0;
#X connect 30 0 31 0;
#X connect 30 0 32 0;
#X connect 30 0 33 0;
#X connect 30 0 34 0;
#X connect 30 0 35 0;
#X connect 30 0 37 0;
#X connect 31 0 9 0;
#X connect 32 0 9 0;
#X connect 33 0 9 0;
#X connect 34 0 9 0;
#X connect 35 0 9 0;
#X connect 36 0 9 0;
#X connect 37 0 9 0;
#X connect 38 0 9 0;
#X connect 39 0 9 0;
#X connect 40 0 9 0;
#X connect 41 0 9 0;
#X connect 42 0 9 0;
#X connect 47 0 9 0;
#X connect 48 0 9 0;
#X connect 49 0 9 0;
#X connect 50 0 9 0;
#X connect 51 0 9 0;
#X connect 52 0 9 0;
#X connect 53 0 9 0;
#X connect 54 0 9 0;
#X connect 55 0 9 0;
#X connect 56 0 91 0;
#X connect 56 0 81 0;
#X connect 56 0 57 0;
#X connect 56 0 89 0;
#X connect 56 0 88 0;
#X connect 56 0 90 0;
#X connect 56 0 63 0;
#X connect 57 0 9 0;
#X connect 58 0 80 0;
#X connect 58 0 59 0;
#X connect 58 0 79 0;
#X connect 58 0 60 0;
#X connect 58 0 61 0;
#X connect 58 0 64 0;
#X connect 58 0 62 0;
#X connect 59 0 9 0;
#X connect 60 0 9 0;
#X connect 61 0 9 0;
#X connect 62 0 9 0;
#X connect 63 0 9 0;
#X connect 64 0 9 0;
#X connect 67 0 82 0;
#X connect 67 0 71 0;
#X connect 67 0 68 0;
#X connect 67 0 70 0;
#X connect 67 0 69 0;
#X connect 67 0 72 0;
#X connect 67 0 87 0;
#X connect 68 0 9 0;
#X connect 69 0 9 0;
#X connect 70 0 9 0;
#X connect 71 0 9 0;
#X connect 72 0 9 0;
#X connect 73 0 75 0;
#X connect 73 0 85 0;
#X connect 73 0 74 0;
#X connect 73 0 76 0;
#X connect 73 0 84 0;
#X connect 73 0 83 0;
#X connect 73 0 86 0;
#X connect 74 0 9 0;
#X connect 75 0 9 0;
#X connect 76 0 9 0;
#X connect 79 0 9 0;
#X connect 80 0 9 0;
#X connect 81 0 9 0;
#X connect 82 0 9 0;
#X connect 83 0 9 0;
#X connect 84 0 9 0;
#X connect 85 0 9 0;
#X connect 86 0 9 0;
#X connect 87 0 9 0;
#X connect 88 0 9 0;
#X connect 89 0 9 0;
#X connect 90 0 9 0;
#X connect 91 0 9 0;
#X connect 92 0 9 0;
