#N canvas 0 22 450 300 10;
#X obj 112 51 inlet;
#X obj 119 99 route 0 1 2 3 4 5 6 7;
#X obj 100 144 route;
#X obj 220 147 route;
#X obj 97 190 outlet;
#X obj 223 192 outlet;
#X obj 154 177 print;
#X obj 158 139 print;
#X connect 0 0 1 0;
#X connect 1 0 2 0;
#X connect 1 0 7 0;
#X connect 1 1 2 0;
#X connect 1 2 2 0;
#X connect 1 3 2 0;
#X connect 1 4 3 0;
#X connect 1 5 3 0;
#X connect 1 6 3 0;
#X connect 1 7 3 0;
#X connect 2 1 4 0;
#X connect 2 1 6 0;
#X connect 3 1 5 0;
