#N canvas 0 22 570 466 10;
#X obj 117 126 bng 15 250 50 0 empty empty empty 17 7 0 10 -262144
-1 -1;
#X obj 153 124 bng 15 250 50 0 empty empty empty 17 7 0 10 -262144
-1 -1;
#X obj -13 205 route;
#X obj 11 232 route;
#X obj 42 262 route;
#X obj 78 302 route;
#X msg 131 170 50;
#X msg 139 209 57;
#X msg 138 236 61;
#X msg 142 270 66;
#X msg 166 171 50;
#X msg 176 207 55;
#X msg 175 236 59;
#X msg 180 269 64;
#X text 152 110 Em7;
#X text 102 107 Dsus4-D;
#X obj 188 125 bng 15 250 50 0 empty empty empty 17 7 0 10 -262144
-1 -1;
#X text 191 109 C;
#X msg 201 172 48;
#X msg 211 208 52;
#X msg 210 237 55;
#X msg 215 270 60;
#X text 225 108 G;
#X text 249 109 D;
#X text 273 109 A;
#X text 306 109 E;
#X text 329 107 B;
#X text 366 105 F#;
#X obj 221 125 bng 15 250 50 0 empty empty empty 17 7 0 10 -262144
-1 -1;
#X obj 249 127 bng 15 250 50 0 empty empty empty 17 7 0 10 -262144
-1 -1;
#X obj 274 128 bng 15 250 50 0 empty empty empty 17 7 0 10 -262144
-1 -1;
#X obj 298 128 bng 15 250 50 0 empty empty empty 17 7 0 10 -262144
-1 -1;
#X obj 325 127 bng 15 250 50 0 empty empty empty 17 7 0 10 -262144
-1 -1;
#X obj 365 125 bng 15 250 50 0 empty empty empty 17 7 0 10 -262144
-1 -1;
#X msg 234 172 50;
#X msg 244 208 55;
#X msg 243 237 59;
#X msg 248 270 67;
#X msg 262 174 50;
#X msg 272 210 57;
#X msg 271 239 62;
#X msg 276 272 66;
#X msg 287 175 52;
#X msg 297 211 57;
#X msg 296 240 61;
#X msg 301 273 64;
#X msg 311 175 52;
#X msg 321 211 56;
#X msg 320 240 59;
#X msg 325 273 64;
#X msg 338 174 51;
#X msg 348 210 57;
#X msg 347 239 59;
#X msg 352 272 66;
#X msg 378 172 54;
#X msg 388 208 58;
#X msg 387 237 61;
#X msg 392 270 65;
#X obj 2 381 outlet;
#X obj 56 380 outlet;
#X obj 113 383 outlet;
#X obj 167 382 outlet;
#X obj 15 36 inlet;
#X obj 60 35 inlet;
#X obj 104 34 inlet;
#X obj 149 33 inlet;
#X obj 201 32 inlet;
#X obj 246 31 inlet;
#X obj 294 31 inlet;
#X obj 339 30 inlet;
#X obj 393 31 inlet;
#X obj 267 377 outlet;
#X obj 324 380 outlet;
#X obj 378 379 outlet;
#X obj 226 339 -;
#X obj 284 304 route;
#X obj 269 338 -;
#X obj 314 337 -;
#X connect 0 0 6 0;
#X connect 0 0 7 0;
#X connect 0 0 8 0;
#X connect 0 0 9 0;
#X connect 1 0 10 0;
#X connect 1 0 11 0;
#X connect 1 0 12 0;
#X connect 1 0 13 0;
#X connect 2 1 58 0;
#X connect 2 1 75 0;
#X connect 3 1 59 0;
#X connect 3 1 74 0;
#X connect 4 1 60 0;
#X connect 4 1 76 0;
#X connect 5 1 61 0;
#X connect 5 1 77 0;
#X connect 6 0 2 0;
#X connect 7 0 3 0;
#X connect 8 0 4 0;
#X connect 9 0 5 0;
#X connect 10 0 2 0;
#X connect 11 0 3 0;
#X connect 12 0 4 0;
#X connect 13 0 5 0;
#X connect 16 0 18 0;
#X connect 16 0 19 0;
#X connect 16 0 20 0;
#X connect 16 0 21 0;
#X connect 18 0 2 0;
#X connect 19 0 3 0;
#X connect 20 0 4 0;
#X connect 21 0 5 0;
#X connect 28 0 34 0;
#X connect 28 0 35 0;
#X connect 28 0 36 0;
#X connect 28 0 37 0;
#X connect 29 0 38 0;
#X connect 29 0 39 0;
#X connect 29 0 40 0;
#X connect 29 0 41 0;
#X connect 30 0 42 0;
#X connect 30 0 43 0;
#X connect 30 0 44 0;
#X connect 30 0 45 0;
#X connect 31 0 46 0;
#X connect 31 0 47 0;
#X connect 31 0 48 0;
#X connect 31 0 49 0;
#X connect 32 0 50 0;
#X connect 32 0 51 0;
#X connect 32 0 52 0;
#X connect 32 0 53 0;
#X connect 33 0 54 0;
#X connect 33 0 55 0;
#X connect 33 0 56 0;
#X connect 33 0 57 0;
#X connect 34 0 2 0;
#X connect 35 0 3 0;
#X connect 36 0 4 0;
#X connect 37 0 5 0;
#X connect 38 0 2 0;
#X connect 39 0 3 0;
#X connect 40 0 4 0;
#X connect 41 0 5 0;
#X connect 42 0 2 0;
#X connect 43 0 3 0;
#X connect 44 0 4 0;
#X connect 45 0 5 0;
#X connect 46 0 2 0;
#X connect 47 0 3 0;
#X connect 48 0 4 0;
#X connect 49 0 5 0;
#X connect 50 0 2 0;
#X connect 51 0 3 0;
#X connect 52 0 4 0;
#X connect 53 0 5 0;
#X connect 54 0 2 0;
#X connect 55 0 3 0;
#X connect 56 0 4 0;
#X connect 57 0 5 0;
#X connect 62 0 0 0;
#X connect 63 0 1 0;
#X connect 64 0 16 0;
#X connect 65 0 28 0;
#X connect 66 0 29 0;
#X connect 67 0 30 0;
#X connect 68 0 31 0;
#X connect 69 0 32 0;
#X connect 70 0 33 0;
#X connect 74 0 71 0;
#X connect 75 1 77 1;
#X connect 75 1 76 1;
#X connect 75 1 74 1;
#X connect 76 0 72 0;
#X connect 77 0 73 0;
#X coords 0 -1 1 1 300 60 2 100 100;
