#N canvas 83 22 785 361 10;
#X msg 185 88 6;
#X msg 108 89 7;
#X msg 2 57 9;
#X msg 261 88 5;
#X msg 338 87 4;
#X msg 414 86 3;
#X msg 490 86 2;
#X msg 566 86 1;
#X msg 642 86 0;
#X msg 38 89 8;
#X obj 38 56 delay 5000;
#X obj 108 55 delay 10000;
#X obj 185 55 delay 15000;
#X obj 261 55 delay 20000;
#X obj 334 -18 inlet;
#X obj 60 242 outlet;
#X obj 338 55 delay 25000;
#X obj 414 55 delay 30000;
#X obj 490 55 delay 35000;
#X obj 565 55 delay 40000;
#X obj 642 55 delay 45000;
#X connect 0 0 15 0;
#X connect 1 0 15 0;
#X connect 2 0 15 0;
#X connect 3 0 15 0;
#X connect 4 0 15 0;
#X connect 5 0 15 0;
#X connect 6 0 15 0;
#X connect 7 0 15 0;
#X connect 8 0 15 0;
#X connect 9 0 15 0;
#X connect 10 0 9 0;
#X connect 11 0 1 0;
#X connect 12 0 0 0;
#X connect 13 0 3 0;
#X connect 14 0 2 0;
#X connect 14 0 10 0;
#X connect 14 0 11 0;
#X connect 14 0 12 0;
#X connect 14 0 13 0;
#X connect 14 0 16 0;
#X connect 14 0 17 0;
#X connect 14 0 18 0;
#X connect 14 0 19 0;
#X connect 14 0 20 0;
#X connect 16 0 4 0;
#X connect 17 0 5 0;
#X connect 18 0 6 0;
#X connect 19 0 7 0;
#X connect 20 0 8 0;
