#N canvas 0 22 1280 752 10;
#X obj 336 54 route 0 1 2 3 4 5 6 7 8 9 10 11 12;
#X msg 36 230 49;
#X msg 61 230 50;
#X msg 86 230 51;
#X msg 138 230 53;
#X msg 163 230 54;
#X msg 82 270 55;
#X msg 107 270 56;
#X msg 132 270 57;
#X msg 159 270 48;
#X msg 184 270 45;
#X msg 209 270 61;
#X obj 76 397 route;
#X msg 113 230 52;
#X obj 34 94 inlet;
#X obj 83 450 outlet;
#X obj 219 186 route 1;
#X obj 271 185 route 1;
#X obj 321 185 route 1;
#X obj 373 184 route 1;
#X obj 426 184 route 1;
#X obj 478 183 route 1;
#X obj 528 183 route 1;
#X obj 580 182 route 1;
#X obj 636 182 route 1;
#X obj 688 181 route 1;
#X obj 738 181 route 1;
#X obj 790 180 route 1;
#X connect 0 0 16 0;
#X connect 0 1 17 0;
#X connect 0 2 18 0;
#X connect 0 3 19 0;
#X connect 0 4 20 0;
#X connect 0 5 21 0;
#X connect 0 6 22 0;
#X connect 0 7 23 0;
#X connect 0 8 24 0;
#X connect 0 9 25 0;
#X connect 0 10 26 0;
#X connect 0 11 27 0;
#X connect 1 0 12 0;
#X connect 2 0 12 0;
#X connect 3 0 12 0;
#X connect 4 0 12 0;
#X connect 5 0 12 0;
#X connect 6 0 12 0;
#X connect 7 0 12 0;
#X connect 8 0 12 0;
#X connect 9 0 12 0;
#X connect 10 0 12 0;
#X connect 11 0 12 0;
#X connect 12 1 15 0;
#X connect 13 0 12 0;
#X connect 14 0 0 0;
#X connect 16 0 1 0;
#X connect 17 0 2 0;
#X connect 18 0 3 0;
#X connect 19 0 13 0;
#X connect 20 0 4 0;
#X connect 21 0 5 0;
#X connect 22 0 6 0;
#X connect 23 0 7 0;
#X connect 24 0 8 0;
#X connect 25 0 9 0;
#X connect 26 0 10 0;
#X connect 27 0 11 0;
