#N canvas 0 22 450 300 10;
#X obj -31 4 inlet;
#X obj -62 220 outlet;
#X msg -176 80 pinMode 13 input;
#X msg -68 80 pinMode 12 input;
#X msg 40 80 pinMode 11 input;
#X msg -166 106 pinMode 10 input;
#X msg -58 106 pinMode 9 input;
#X msg 50 106 pinMode 8 input;
#X msg -156 131 pinMode 7 input;
#X msg -48 131 pinMode 6 input;
#X msg 60 131 pinMode 5 input;
#X msg -146 156 pinMode 4 input;
#X msg -38 156 pinMode 3 input;
#X msg 70 156 pinMode 2 input;
#X connect 0 0 2 0;
#X connect 0 0 3 0;
#X connect 0 0 4 0;
#X connect 0 0 5 0;
#X connect 0 0 6 0;
#X connect 0 0 7 0;
#X connect 0 0 8 0;
#X connect 0 0 9 0;
#X connect 0 0 10 0;
#X connect 0 0 11 0;
#X connect 0 0 12 0;
#X connect 0 0 13 0;
#X connect 2 0 1 0;
#X connect 3 0 1 0;
#X connect 4 0 1 0;
#X connect 5 0 1 0;
#X connect 6 0 1 0;
#X connect 7 0 1 0;
#X connect 8 0 1 0;
#X connect 9 0 1 0;
#X connect 10 0 1 0;
#X connect 11 0 1 0;
#X connect 12 0 1 0;
#X connect 13 0 1 0;
