#N canvas 0 22 450 300 10;
#X text 110 104 OFF;
#X obj 150 125 bng 30 250 50 0 empty empty empty 17 7 0 10 -262144
-1 -1;
#X text 157 104 ON;
#X obj 105 125 bng 30 250 50 0 empty empty empty 17 7 0 10 -262144
-1 -1;
#X obj 68 43 inlet;
#X obj 161 42 inlet;
#X msg 44 188 0;
#X msg 89 188 1;
#X msg 206 187 0;
#X msg 266 187 1;
#X obj 27 228 outlet;
#X obj 79 228 outlet;
#X obj 201 227 outlet;
#X obj 264 227 outlet;
#X obj 235 35 inlet;
#X obj 241 72 route 0 1;
#X obj 138 228 outlet;
#X obj 327 227 outlet;
#X connect 1 0 8 0;
#X connect 1 0 9 0;
#X connect 1 0 17 0;
#X connect 3 0 6 0;
#X connect 3 0 7 0;
#X connect 3 0 16 0;
#X connect 4 0 3 0;
#X connect 5 0 1 0;
#X connect 6 0 10 0;
#X connect 7 0 11 0;
#X connect 8 0 12 0;
#X connect 9 0 13 0;
#X connect 14 0 15 0;
#X connect 15 0 3 0;
#X connect 15 1 1 0;
#X coords 0 -1 1 1 85 60 2 100 100;
