#N canvas 0 22 450 300 10;
#X obj 289 75 openpanel;
#X msg 284 199 read -resize \$1 test;
#X obj 257 239 soundfiler;
#X msg 29 209 \; test normalize;
#X msg 127 208 \; test2 normalize;
#X msg 111 182 read -resize \$1 test2;
#X obj 111 110 bng 15 250 50 0 empty empty empty 17 7 0 10 -262144
-1 -1;
#X text 139 110 Open File;
#X symbolatom 105 138 48 0 0 0 - - -;
#X connect 0 0 1 0;
#X connect 0 0 5 0;
#X connect 0 0 8 0;
#X connect 1 0 2 0;
#X connect 2 0 3 0;
#X connect 2 0 4 0;
#X connect 5 0 2 0;
#X connect 6 0 0 0;
#X coords 0 -1 1 1 300 60 2 100 100;
