#N canvas 0 22 1280 752 10;
#X obj 542 280 phasor~;
#X obj 299 347 phasor~;
#X floatatom 299 322 5 0 0 0 - - -;
#X obj 298 489 *~ 256;
#X obj 542 484 samphold~;
#X obj 299 570 +~;
#X obj 301 740 dac~;
#X obj 456 606 tabread~ hanning;
#X obj 300 672 *~;
#X obj 637 485 *~ 256;
#X obj 879 492 samphold~;
#X obj 638 566 +~;
#X obj 795 602 tabread~ hanning;
#X obj 639 668 *~;
#X obj 637 434 wrap~;
#X obj 637 406 +~ 0.5;
#X obj 301 708 *~ 0.6;
#X floatatom 542 253 5 0 0 0 - - -;
#X obj 542 306 *~ 62080;
#X text 545 223 here you can once again choose your own settings;
#X text 297 300 playback speed you want;
#X text 356 479 window \, here 256;
#X text 355 496 samples in size;
#X text 356 479 window \, here 256;
#X text 355 496 samples in size;
#X text 356 479 window \, here 256;
#X text 355 496 samples in size;
#X text 694 474 window \, here 256;
#X text 693 491 samples in size;
#X text 694 474 window \, here 256;
#X text 693 491 samples in size;
#X text 694 474 window \, here 256;
#X text 693 491 samples in size;
#X obj 299 605 tabread4~ test;
#X obj 638 601 tabread4~ test;
#X obj 127 200 hsl 128 15 0 500 0 0 empty empty empty -2 -8 0 10 -262144
-1 -1 0 1;
#X obj 127 226 hsl 128 15 0 2 0 0 empty empty empty -2 -8 0 10 -262144
-1 -1 0 1;
#X obj 27 35 inlet;
#X obj 97 35 inlet;
#X obj 170 33 inlet;
#X text 146 149 Sample Player 1;
#X text 105 101 PB1;
#X text 179 101 PB2;
#X text 249 101 Reset;
#X connect 0 0 18 0;
#X connect 1 0 3 0;
#X connect 1 0 4 1;
#X connect 1 0 15 0;
#X connect 2 0 1 0;
#X connect 3 0 5 0;
#X connect 3 0 7 0;
#X connect 4 0 5 1;
#X connect 5 0 33 0;
#X connect 7 0 8 1;
#X connect 8 0 16 0;
#X connect 9 0 11 0;
#X connect 9 0 12 0;
#X connect 10 0 11 1;
#X connect 11 0 34 0;
#X connect 12 0 13 1;
#X connect 13 0 16 0;
#X connect 14 0 9 0;
#X connect 14 0 10 1;
#X connect 15 0 14 0;
#X connect 16 0 6 0;
#X connect 16 0 6 1;
#X connect 17 0 0 0;
#X connect 18 0 4 0;
#X connect 18 0 10 0;
#X connect 33 0 8 0;
#X connect 34 0 13 0;
#X connect 35 0 2 0;
#X connect 36 0 17 0;
#X connect 37 0 35 0;
#X connect 38 0 36 0;
#X connect 39 0 1 1;
#X connect 39 0 0 1;
#X coords 0 -1 1 1 185 160 2 100 100;
