#N canvas 0 22 1280 752 10;
#X obj 265 40 route 49 50 51 52 53 54 55 56 57 48 45 61;
#X msg 39 213 42;
#X msg 74 212 84;
#X msg 113 208 126;
#X msg 141 221 168;
#X msg 172 227 210;
#X msg 206 230 252;
#X msg 242 227 294;
#X msg 279 226 336;
#X msg 312 226 378;
#X msg 350 226 420;
#X msg 389 230 462;
#X msg 434 236 500;
#X msg 391 153 0.16;
#X msg 426 152 0.32;
#X msg 465 148 0.48;
#X msg 493 161 0.64;
#X msg 524 167 0.8;
#X msg 558 170 0.96;
#X msg 594 167 1.12;
#X msg 631 166 1.28;
#X msg 664 166 1.44;
#X msg 702 166 1.6;
#X msg 741 170 1.76;
#X msg 786 176 1.92;
#X obj 242 351 outlet;
#X obj 1058 478 outlet;
#X obj 529 228 outlet;
#X obj 653 22 inlet;
#X obj 692 80 spigot;
#X obj 774 32 == 0;
#X obj 726 241 route 49 50 51 52 53 54 55 56 57 48 45 61;
#X obj 1096 199 route 49 50 51 52 53 54 55 56 57 48 45 61;
#X msg 1351 309 500;
#X obj 1118 402 route;
#X obj 827 76 spigot;
#X obj 490 -21 inlet;
#X msg 981 351 200;
#X msg 710 351 300;
#X msg 738 351 280;
#X msg 767 351 270;
#X msg 798 351 260;
#X msg 829 351 250;
#X msg 858 351 240;
#X msg 889 351 230;
#X msg 921 351 220;
#X msg 950 351 210;
#X msg 1011 352 190;
#X msg 1042 352 170;
#X msg 1381 310 480;
#X msg 1412 310 440;
#X msg 1320 309 520;
#X msg 1291 309 540;
#X msg 1259 309 580;
#X msg 1228 309 600;
#X msg 1199 309 620;
#X msg 1168 309 640;
#X msg 1137 309 660;
#X msg 1108 309 680;
#X msg 1080 309 720;
#X connect 0 0 1 0;
#X connect 0 0 13 0;
#X connect 0 1 2 0;
#X connect 0 1 14 0;
#X connect 0 2 3 0;
#X connect 0 2 15 0;
#X connect 0 3 4 0;
#X connect 0 3 16 0;
#X connect 0 4 5 0;
#X connect 0 4 17 0;
#X connect 0 5 6 0;
#X connect 0 5 18 0;
#X connect 0 6 7 0;
#X connect 0 6 19 0;
#X connect 0 7 8 0;
#X connect 0 7 20 0;
#X connect 0 8 9 0;
#X connect 0 8 21 0;
#X connect 0 9 10 0;
#X connect 0 9 22 0;
#X connect 0 10 11 0;
#X connect 0 10 23 0;
#X connect 0 11 12 0;
#X connect 0 11 24 0;
#X connect 1 0 25 0;
#X connect 2 0 25 0;
#X connect 3 0 25 0;
#X connect 4 0 25 0;
#X connect 5 0 25 0;
#X connect 6 0 25 0;
#X connect 7 0 25 0;
#X connect 8 0 25 0;
#X connect 9 0 25 0;
#X connect 10 0 25 0;
#X connect 11 0 25 0;
#X connect 12 0 25 0;
#X connect 13 0 27 0;
#X connect 14 0 27 0;
#X connect 15 0 27 0;
#X connect 16 0 27 0;
#X connect 17 0 27 0;
#X connect 18 0 27 0;
#X connect 19 0 27 0;
#X connect 20 0 27 0;
#X connect 21 0 27 0;
#X connect 22 0 27 0;
#X connect 23 0 27 0;
#X connect 24 0 27 0;
#X connect 28 0 29 1;
#X connect 28 0 30 0;
#X connect 29 0 31 0;
#X connect 30 0 35 1;
#X connect 31 0 38 0;
#X connect 31 1 39 0;
#X connect 31 2 40 0;
#X connect 31 3 41 0;
#X connect 31 4 42 0;
#X connect 31 5 43 0;
#X connect 31 6 44 0;
#X connect 31 7 45 0;
#X connect 31 8 46 0;
#X connect 31 9 37 0;
#X connect 31 10 47 0;
#X connect 31 11 48 0;
#X connect 32 0 59 0;
#X connect 32 1 58 0;
#X connect 32 2 57 0;
#X connect 32 3 56 0;
#X connect 32 4 55 0;
#X connect 32 5 54 0;
#X connect 32 6 53 0;
#X connect 32 7 52 0;
#X connect 32 8 51 0;
#X connect 32 9 33 0;
#X connect 32 10 49 0;
#X connect 32 11 50 0;
#X connect 33 0 34 0;
#X connect 34 1 26 0;
#X connect 35 0 32 0;
#X connect 36 0 0 0;
#X connect 36 0 29 0;
#X connect 36 0 35 0;
#X connect 37 0 26 0;
#X connect 38 0 26 0;
#X connect 39 0 26 0;
#X connect 40 0 26 0;
#X connect 41 0 26 0;
#X connect 42 0 26 0;
#X connect 43 0 26 0;
#X connect 44 0 26 0;
#X connect 45 0 26 0;
#X connect 46 0 26 0;
#X connect 47 0 26 0;
#X connect 48 0 26 0;
#X connect 49 0 34 0;
#X connect 50 0 34 0;
#X connect 51 0 34 0;
#X connect 52 0 34 0;
#X connect 53 0 34 0;
#X connect 54 0 34 0;
#X connect 55 0 34 0;
#X connect 56 0 34 0;
#X connect 57 0 34 0;
#X connect 58 0 34 0;
#X connect 59 0 34 0;
