#N canvas 0 23 1280 751 10;
#X obj 98 340 env~;
#X obj 99 360 - 100;
#X obj 118 306 dac~;
#X symbolatom 106 177 30 0 0 0 - - -;
#X text 107 102 Sample Library;
#X text 105 158 Now Playing:;
#X obj 297 112 vu 15 80 empty empty -1 -8 0 10 -66577 -1 1 0;
#X obj -318 125 inlet;
#X obj 140 329 outlet~;
#X msg -251 413 start;
#X msg -250 430 stop;
#X obj -180 415 bng 15 250 50 0 empty empty empty 17 7 0 10 -262144
-1 -1;
#X obj -211 431 readsf~;
#X obj 117 285 route~;
#X obj 130 121 bng 15 250 50 0 empty empty empty 17 7 0 10 -262144
-1 -1;
#X obj 88 205 receive clipName;
#X obj 114 245 send clipName;
#X obj 106 121 bng 15 250 50 0 empty empty empty 17 7 0 10 -262144
-1 -1;
#X obj -136 179 send samplePlay;
#X obj -269 134 receive samplePlay;
#X obj -211 376 loadbang;
#X msg -245 268 start;
#X msg -244 285 stop;
#X obj -174 270 bng 15 250 50 0 empty empty empty 17 7 0 10 -262144
-1 -1;
#X obj -205 286 readsf~;
#X obj -205 231 loadbang;
#X obj 178 121 bng 15 250 50 0 empty empty empty 17 7 0 10 -262144
-1 -1;
#X obj 154 121 bng 15 250 50 0 empty empty empty 17 7 0 10 -262144
-1 -1;
#X obj 226 121 bng 15 250 50 0 empty empty empty 17 7 0 10 -262144
-1 -1;
#X obj 202 121 bng 15 250 50 0 empty empty empty 17 7 0 10 -262144
-1 -1;
#X obj 274 121 bng 15 250 50 0 empty empty empty 17 7 0 10 -262144
-1 -1;
#X obj 250 121 bng 15 250 50 0 empty empty empty 17 7 0 10 -262144
-1 -1;
#X text 110 133 1;
#X text 134 133 2;
#X text 157 133 3;
#X text 181 133 4;
#X text 206 133 5;
#X text 230 133 6;
#X text 253 133 7;
#X text 277 133 8;
#X msg -136 152 1;
#X msg -104 152 2;
#X msg -71 152 3;
#X msg -38 151 4;
#X msg -6 151 5;
#X msg 27 151 6;
#X msg -22 175 7;
#X msg 10 175 8;
#X floatatom -359 199 5 0 0 0 - - -;
#X obj -317 197 route 1 2 3 4 5 6 7 8;
#X msg -148 231 symbol sounds/yoloswag.aiff;
#X msg -204 252 open sounds/yoloswag.aiff;
#X msg -210 397 open sounds/sheep.aif;
#X msg -154 376 symbol sounds/sheep.aif;
#X connect 0 0 1 0;
#X connect 1 0 6 0;
#X connect 7 0 49 0;
#X connect 9 0 12 0;
#X connect 10 0 12 0;
#X connect 11 0 52 0;
#X connect 12 0 13 0;
#X connect 12 1 11 0;
#X connect 13 0 0 0;
#X connect 13 0 2 0;
#X connect 13 0 8 0;
#X connect 14 0 41 0;
#X connect 15 0 3 0;
#X connect 17 0 40 0;
#X connect 19 0 49 0;
#X connect 19 0 48 0;
#X connect 20 0 52 0;
#X connect 21 0 24 0;
#X connect 22 0 24 0;
#X connect 23 0 51 0;
#X connect 24 0 13 0;
#X connect 24 1 23 0;
#X connect 25 0 51 0;
#X connect 26 0 43 0;
#X connect 27 0 42 0;
#X connect 28 0 45 0;
#X connect 29 0 44 0;
#X connect 30 0 47 0;
#X connect 31 0 46 0;
#X connect 40 0 18 0;
#X connect 41 0 18 0;
#X connect 42 0 18 0;
#X connect 43 0 18 0;
#X connect 44 0 18 0;
#X connect 45 0 18 0;
#X connect 46 0 18 0;
#X connect 47 0 18 0;
#X connect 49 0 21 0;
#X connect 49 0 50 0;
#X connect 49 1 53 0;
#X connect 49 1 9 0;
#X connect 50 0 16 0;
#X connect 51 0 24 0;
#X connect 52 0 12 0;
#X connect 53 0 16 0;
#X coords 0 -1 1 1 240 100 2 100 100;
