#N canvas 610 297 224 154 10;
#N canvas 496 243 483 415 t 0;
#X obj 53 198 metro;
#X obj 106 172 tgl 22 0 empty empty star/stop 0 28 0 11 -258113 -1
-258113 1 1;
#X obj 105 223 bng 22 250 50 0 empty empty BEAT 0 -9 0 15 -1 -258113
-258113;
#X obj 250 223 nbx 4 22 -1e+37 1e+37 0 0 empty \$2-bpm BPM 41 -8 0
15 -1 -258113 -258113 60 256;
#X obj 237 179 nbx 5 22 -1e+37 1e+37 0 0 empty \$1-milli milliseconds
-25 -8 0 15 -1 -258113 -258113 1000 256;
#X obj 106 130 bng 22 250 50 0 tap empty Tap 24 7 0 15 -258113 -1 -258113
;
#X obj 43 32 loadbang;
#X msg 67 96 1;
#X text 130 139 or press (key) "T" for tap;
#N canvas 0 0 450 300 bpm 0;
#X obj 100 82 expr 1000 / $f1 * 60;
#X obj 110 120 s \$2-bpm;
#X obj 102 40 r \$1-milli;
#X connect 0 0 1 0;
#X connect 2 0 0 0;
#X restore 280 80 pd bpm;
#X obj 32 163 r \$1-milli;
#N canvas 540 182 323 337 tap 0;
#X obj -186 61 timer;
#X floatatom -157 82 5 0 0 0 - - -;
#X obj -184 27 sel 0 1;
#X obj -184 -62 i;
#X obj -184 -39 + 1;
#X obj -184 -7 mod 2;
#X obj -186 102 s \$1-milli;
#X obj -184 -104 r tap;
#X connect 0 0 1 0;
#X connect 0 0 6 0;
#X connect 2 0 0 1;
#X connect 2 1 0 0;
#X connect 3 0 4 0;
#X connect 4 0 3 1;
#X connect 4 0 5 0;
#X connect 5 0 2 0;
#X connect 7 0 3 0;
#X restore 231 80 pd tap;
#X obj 22 129 s \$1-milli;
#X obj 115 21 key;
#X obj 115 48 sel 116;
#X obj 123 76 change;
#X msg 9 78 1000;
#X obj 120 275 outlet;
#X obj 255 280 outlet;
#X obj 255 251 r \$1-milli;
#X text 101 101 t is for tap;
#X text 238 102 LifoFernandez;
#X text 376 25 3/2009;
#X connect 0 0 2 0;
#X connect 0 0 17 0;
#X connect 1 0 0 0;
#X connect 6 0 7 0;
#X connect 6 0 16 0;
#X connect 7 0 1 0;
#X connect 10 0 0 1;
#X connect 13 0 14 0;
#X connect 14 0 15 0;
#X connect 15 0 5 0;
#X connect 16 0 12 0;
#X connect 19 0 18 0;
#X coords 0 -1 1 1 220 150 2 100 100;
#X restore 1 1 pd t for tap;
#X coords 0 -1 1 1 220 150 1 1 1;
